<svg xmlns="http://www.w3.org/2000/svg" xmlns:xlink="http://www.w3.org/1999/xlink" version="1.1" x="0px" y="0px" viewBox="0 0 100 125" style="enable-background:new 0 0 100 100;" xml:space="preserve"><style type="text/css">
	.st0{display:none;}
	.st1{display:inline;}
	.st2{fill:none;stroke:#000000;stroke-miterlimit:10;}
	.st3{fill-rule:evenodd;clip-rule:evenodd;}
</style><g class="st0"><g class="st1"><path d="M176.7,5.9c24.3,0,44.1,19.8,44.1,44.1S201,94.1,176.7,94.1S132.6,74.3,132.6,50S152.3,5.9,176.7,5.9 M176.7,4.9    c-24.9,0-45.1,20.2-45.1,45.1s20.2,45.1,45.1,45.1s45.1-20.2,45.1-45.1S201.6,4.9,176.7,4.9L176.7,4.9z"/></g><g class="st1"><line class="st2" x1="176.7" y1="17.2" x2="176.7" y2="82.8"/></g><g class="st1"><line class="st2" x1="209.4" y1="50" x2="143.9" y2="50"/></g><g class="st1"><line class="st2" x1="160.3" y1="21.6" x2="193" y2="78.4"/></g><g class="st1"><line class="st2" x1="205" y1="33.6" x2="148.3" y2="66.4"/></g><g class="st1"><line class="st2" x1="148.3" y1="33.6" x2="205" y2="66.4"/></g><g class="st1"><line class="st2" x1="193" y1="21.6" x2="160.3" y2="78.4"/></g></g><g><g><path d="M50,52.5c-1.4,0-2.5-1.1-2.5-2.5V17.2c0-1.4,1.1-2.5,2.5-2.5s2.5,1.1,2.5,2.5V50C52.5,51.3,51.4,52.5,50,52.5z"/></g><circle class="st3" cx="82.8" cy="50" r="2.5"/><circle class="st3" cx="78.4" cy="66.4" r="2.5"/><circle class="st3" cx="66.4" cy="78.4" r="2.5"/><circle class="st3" cx="50" cy="82.8" r="2.5"/><circle class="st3" cx="33.6" cy="78.4" r="2.5"/><circle class="st3" cx="21.6" cy="66.4" r="2.5"/><circle class="st3" cx="17.2" cy="50" r="2.5"/><circle class="st3" cx="21.6" cy="33.6" r="2.5"/><circle class="st3" cx="33.6" cy="21.6" r="2.5"/><circle class="st3" cx="50" cy="17.2" r="2.5"/><circle class="st3" cx="66.4" cy="21.6" r="2.5"/><circle class="st3" cx="78.5" cy="33.6" r="2.5"/><path d="M50,10c22.1,0,40,17.9,40,40S72.1,90,50,90S10,72.1,10,50S27.9,10,50,10 M50,5C25.1,5,5,25.1,5,50s20.1,45,45,45   s45-20.1,45-45S74.9,5,50,5L50,5z"/></g><g><g><path d="M50,52.5c-0.4,0-0.9-0.1-1.2-0.3c-1.2-0.7-1.6-2.2-0.9-3.4l10.6-18.3c0.7-1.2,2.2-1.6,3.4-0.9c1.2,0.7,1.6,2.2,0.9,3.4    L52.2,51.2C51.7,52.1,50.9,52.5,50,52.5z"/></g></g><g class="st0"><g class="st1"><path d="M50,52.5c-0.9,0-1.7-0.4-2.2-1.2c-0.7-1.2-0.3-2.7,0.9-3.4l18.3-10.6c1.2-0.7,2.7-0.3,3.4,0.9c0.7,1.2,0.3,2.7-0.9,3.4    L51.2,52.2C50.9,52.4,50.4,52.5,50,52.5z"/></g></g><g class="st0"><g class="st1"><path d="M71.2,52.5H50c-1.4,0-2.5-1.1-2.5-2.5s1.1-2.5,2.5-2.5h21.2c1.4,0,2.5,1.1,2.5,2.5S72.6,52.5,71.2,52.5z"/></g></g><g class="st0"><g class="st1"><path d="M68.3,63.1c-0.4,0-0.9-0.1-1.2-0.3L48.8,52.2c-1.2-0.7-1.6-2.2-0.9-3.4c0.7-1.2,2.2-1.6,3.4-0.9l18.3,10.6    c1.2,0.7,1.6,2.2,0.9,3.4C70,62.6,69.2,63.1,68.3,63.1z"/></g></g><g class="st0"><g class="st1"><path d="M60.6,70.8c-0.9,0-1.7-0.4-2.2-1.2L47.8,51.2c-0.7-1.2-0.3-2.7,0.9-3.4c1.2-0.7,2.7-0.3,3.4,0.9l10.6,18.3    c0.7,1.2,0.3,2.7-0.9,3.4C61.4,70.7,61,70.8,60.6,70.8z"/></g></g><g class="st0"><g class="st1"><path d="M50,73.7c-1.4,0-2.5-1.1-2.5-2.5V50c0-1.4,1.1-2.5,2.5-2.5s2.5,1.1,2.5,2.5v21.2C52.5,72.6,51.4,73.7,50,73.7z"/></g></g><g class="st0"><g class="st1"><path d="M39.4,70.8c-0.4,0-0.9-0.1-1.2-0.3c-1.2-0.7-1.6-2.2-0.9-3.4l10.6-18.3c0.7-1.2,2.2-1.6,3.4-0.9c1.2,0.7,1.6,2.2,0.9,3.4    L41.6,69.6C41.1,70.4,40.3,70.8,39.4,70.8z"/></g></g><g class="st0"><g class="st1"><path d="M31.7,63.1c-0.9,0-1.7-0.4-2.2-1.2c-0.7-1.2-0.3-2.7,0.9-3.4l18.3-10.6c1.2-0.7,2.7-0.3,3.4,0.9c0.7,1.2,0.3,2.7-0.9,3.4    L32.9,62.8C32.5,63,32.1,63.1,31.7,63.1z"/></g></g><g class="st0"><g class="st1"><path d="M50,52.5H28.8c-1.4,0-2.5-1.1-2.5-2.5s1.1-2.5,2.5-2.5H50c1.4,0,2.5,1.1,2.5,2.5S51.4,52.5,50,52.5z"/></g></g><g class="st0"><g class="st1"><path d="M50,52.5c-0.4,0-0.9-0.1-1.2-0.3L30.4,41.6c-1.2-0.7-1.6-2.2-0.9-3.4c0.7-1.2,2.2-1.6,3.4-0.9l18.3,10.6    c1.2,0.7,1.6,2.2,0.9,3.4C51.7,52.1,50.9,52.5,50,52.5z"/></g></g><g class="st0"><g class="st1"><path d="M50,52.5c-0.9,0-1.7-0.4-2.2-1.2L37.2,32.9c-0.7-1.2-0.3-2.7,0.9-3.4c1.2-0.7,2.7-0.3,3.4,0.9l10.6,18.3    c0.7,1.2,0.3,2.7-0.9,3.4C50.9,52.4,50.4,52.5,50,52.5z"/></g></g><g class="st0"><g class="st1"><path d="M50,52.5c-1.4,0-2.5-1.1-2.5-2.5V28.8c0-1.4,1.1-2.5,2.5-2.5s2.5,1.1,2.5,2.5V50C52.5,51.4,51.4,52.5,50,52.5z"/></g></g><text x="0" y="115" fill="#000000" font-size="5px" font-weight="bold" font-family="'Helvetica Neue', Helvetica, Arial-Unicode, Arial, Sans-serif"></text></svg>