<?xml version="1.0" encoding="utf-8"?>
<!-- Generator: Adobe Illustrator 24.0.3, SVG Export Plug-In . SVG Version: 6.00 Build 0)  -->
<svg version="1.1" id="Layer_1" xmlns="http://www.w3.org/2000/svg" xmlns:xlink="http://www.w3.org/1999/xlink" x="0px" y="0px"
	 viewBox="0 0 392 140" style="enable-background:new 0 0 392 140;" xml:space="preserve">
<style type="text/css">
	.st0{clip-path:url(#SVGID_2_);}
	.st1{clip-path:url(#SVGID_4_);}
	.st2{fill:#537737;}
</style>
<g>
	<defs>
		<path id="SVGID_1_" d="M37,99.9h106.7v3.1H37V99.9z M176.7,92.4h-1.5c-0.3,0-0.6,0.3-0.6,0.6v5v2.7c0,0.3-0.4,0.3-0.5,0.1
			l-2.7-7.7c0-0.4-0.2-0.6-0.7-0.6h-1.5c-0.3,0-0.6,0.3-0.6,0.6v5v3.6v8.3c0,0.4,0.2,0.6,0.7,0.6h1.5c0.3,0,0.6-0.3,0.6-0.6v-5v-2.7
			c0-0.3,0.4-0.3,0.5-0.1l2.7,7.7c0,0.4,0.2,0.6,0.7,0.6h1.5c0.3,0,0.6-0.3,0.6-0.6v-5v-3.6V93C177.4,92.6,177.2,92.4,176.7,92.4z
			 M165.4,92.4h-1.5c-0.4,0-0.6,0.2-0.6,0.6v4.9v3.6v8.3c0,0.4,0.2,0.6,0.7,0.6h1.5c0.4,0,0.6-0.2,0.6-0.6v-4.9v-3.6V93
			C166,92.6,165.8,92.4,165.4,92.4z M155.5,98.1c-0.3-0.5-0.4-1-0.4-1.6c0-0.8,0.4-1.3,1.1-1.3c0.8,0,1.2,0.5,1.2,1.3v0.2
			c0,0.4,0.2,0.6,0.5,0.6h1.6c0.4,0,0.6-0.2,0.6-0.6v-0.5c0-1-0.4-1.9-1.1-2.7c-0.8-0.8-1.7-1.2-2.8-1.2c-1,0-1.9,0.4-2.7,1.2
			c-0.8,0.8-1.1,1.7-1.1,2.8v0.8c0,0.4,0,1,0.3,1.5l4.4,6.1c0.3,0.5,0.4,1,0.4,1.6c0,0.8-0.4,1.3-1.1,1.3c-0.8,0-1.2-0.5-1.2-1.3
			v-0.2c0-0.4-0.2-0.6-0.5-0.6h-1.6c-0.4,0-0.6,0.2-0.6,0.6v0.5c0,1,0.4,1.9,1.1,2.7c0.8,0.8,1.7,1.2,2.8,1.2c1,0,1.9-0.4,2.7-1.2
			c0.8-0.8,1.1-1.7,1.1-2.8v-0.8c0-0.4,0-1-0.3-1.5L155.5,98.1z M138.4,23.8h-11.3c-1.2,0-1.8,0.6-1.8,1.9v4.5
			c0,1.1,0.6,1.6,1.8,1.6h10.1c1,0,1.6,0.4,1.6,1.4v40.9c0,1.2,0.6,1.8,1.9,1.8h4.6c1.1,0,1.7-0.6,1.7-1.8V32.3
			C147,27.5,143.2,23.8,138.4,23.8z M161.2,23.8H153c-1.2,0-1.8,0.6-1.8,1.9v4.5c0,1.1,0.6,1.6,1.8,1.6h1c2.1,0,0.7,2.1,0.7,4.1
			v38.3c0,1.2,0.6,1.8,1.9,1.8h4.7c1.2,0,1.7-0.6,1.7-1.8V25.5C163,24.2,162.4,23.8,161.2,23.8z M268.2,76h5.4c2.2,0,4-1.8,4-4V33.3
			c0-1,0.6-1.4,1.6-1.4h3.8c1,0,1.6,0.4,1.6,1.4v41.2c0,1.1,0.7,1.5,1.8,1.5h4.4c0.7,0,1.4-0.4,1.4-1.5v-49c0-1.2-0.6-1.7-1.8-1.7
			h-21c-1.1,0-1.7,0.6-1.7,1.9v4.5c0,1.1,0.6,1.6,1.7,1.6c2,0,0.4,2.1,0.4,4.1v30.8c0,0.8-0.3,1.3-1.1,1.3h-1c-1,0-1.4,0.8-1.4,1.9
			v4.4C266.4,75.5,267,76,268.2,76z M102.1,76h18.8c1.1,0,1.7-0.5,1.7-1.7v-4.4c0-1.1-0.4-1.7-1.4-1.9c-0.7-0.1-1.1-0.5-1.1-1.3
			V25.5c0-1.2-0.6-1.7-1.8-1.7h-16.2c-1.2,0-1.8,0.6-1.8,1.9v4.5c0,1.1,0.6,1.6,1.8,1.6h8.2c1,0,1.6,0.4,1.6,1.4v33.3
			c0,1-0.6,1.4-1.6,1.4h-8.2c-1.2,0-1.8,0.6-1.8,1.9v4.5C100.3,75.4,101,76,102.1,76z M38.8,76h5.4c2.2,0,4-1.8,4-4V33.3
			c0-1,0.6-1.4,1.6-1.4h3.8c1,0,1.6,0.4,1.6,1.4v41.2c0,1.1,0.7,1.5,1.8,1.5h4.4c0.7,0,1.4-0.4,1.4-1.5v-49c0-1.2-0.6-1.7-1.8-1.7
			H40c-1.1,0-1.7,0.6-1.7,1.9v4.5c0,1.1,0.6,1.6,1.7,1.6c2,0,0.4,2.1,0.4,4.1v30.8c0,0.8-0.3,1.3-1.1,1.3h-1c-1,0-1.4,0.8-1.4,1.9
			v4.4C37,75.5,37.6,76,38.8,76z M306.4,76h11.8c4.9,0,8.8-3.7,8.8-8.5v-42c0-1.1-0.5-1.7-1.7-1.7h-4.2c-1.2,0-1.9,0.6-1.9,1.7v41.1
			c0,0.9-0.5,1.3-1.4,1.3h-1.1c-1.3,0-1.2-1.3-0.8-2.7c0.2-0.6,0.3-1.2,0.3-1.7V25.5c0-1.1-0.5-1.7-1.6-1.7h-4.3
			c-1.2,0-1.9,0.6-1.9,1.7v38.1c0,0.5,0.1,1.1,0.3,1.7c0.4,1.3,0.5,2.7-0.8,2.7h-1.1c-0.9,0-1.4-0.4-1.4-1.3V25.5
			c0-1.1-0.5-1.7-1.6-1.7h-4.3c-1.2,0-1.9,0.6-1.9,1.7v42C297.7,72.2,301.6,76,306.4,76z M83.3,76h4.1c4.8,0,8.5-3.7,8.5-8.5v-42
			c0-1.2-0.6-1.7-1.8-1.7h-8.2c-1.1,0-1.7,0.6-1.7,1.9v4.5c0,1.1,0.6,1.6,1.7,1.6H87c2.1,0,0.7,2.1,0.7,4.1l-0.1,30.9
			c0,0.5-0.4,1.1-1.2,1.1h-3.1c-1.2,0-1.8,0.6-1.8,1.9v4.5C81.5,75.4,82.1,76,83.3,76z M69.7,31.9c2.1,0,0.6,2.1,0.6,4.1v13
			c0,1.2,0.6,1.8,1.9,1.8h4.7c1.2,0,1.7-0.6,1.7-1.8V25.5c0-1.2-0.6-1.7-1.8-1.7h-7.1c-1.2,0-1.8,0.6-1.8,1.9v4.5
			C67.9,31.4,68.5,31.9,69.7,31.9z M237.2,74.2V25.5c0-1.2-0.6-1.7-1.8-1.7h-19.1c-1.2,0-1.8,0.6-1.8,1.9v4.5c0,1.1,0.6,1.6,1.8,1.6
			h11.3c1,0,1.6,0.4,1.6,1.4v40.9c0,1.2,0.6,1.8,1.9,1.8h4.4C236.6,76,237.2,75.4,237.2,74.2z M239.1,93.8c0.6,0.7,0.9,1.6,0.9,2.4
			v10.5c0,0.9-0.3,1.7-0.9,2.5c-0.8,0.9-1.7,1.4-2.9,1.4c-1.1,0-2-0.4-2.8-1.1c-0.7-0.8-1.1-1.7-1.1-2.7V96.2c0-0.9,0.3-1.7,1-2.5
			c0.7-0.9,1.8-1.3,2.9-1.3C237.4,92.4,238.4,92.9,239.1,93.8z M237.3,96.2c0-0.5-0.5-1.1-1.2-1.1c-0.7,0-1.2,0.6-1.2,1.1v10.5
			c0,0.5,0.5,1.1,1.2,1.1c0.7,0,1.2-0.7,1.2-1.1V96.2z M260.2,65l3.5-38.1c0.1-1.6-1.2-3.1-3-3.1h-9.5c-0.9,0-1.4-0.4-1.4-1.3v-3.2
			c0-1.1-0.5-1.7-1.6-1.7h-4.5c-1.2,0-1.9,0.6-1.9,1.7v10.9c0,1.2,0.6,1.7,1.8,1.7h10c0.9,0,1.4,0.4,1.3,1.3l-2.9,31.8
			c-0.2,1.5-1.4,3-3,3h-2.1c-1.2,0-1.8,0.6-1.8,1.9v4.5c0,1.2,0.6,1.7,1.8,1.7h2.1C254.9,76,259.5,71.4,260.2,65z M248.7,103h106.7
			v-3.1H248.7V103z M229.3,92.4h-1.8c-0.2,0-0.4,0.1-0.5,0.3c-0.4,0.8-0.7,1.2-0.9,1.5c-0.4,0.5-0.6,0.7-0.6,1v1.8
			c0,0.4,0.2,0.6,0.6,0.6c0.2,0,0.5-0.2,0.7-0.2c0.3,0,0.4,0.2,0.4,0.6v12c0,0.4,0.2,0.6,0.7,0.6h1.5c0.4,0,0.6-0.2,0.6-0.6v-8.5V93
			C229.9,92.6,229.7,92.4,229.3,92.4z M346.9,23.8h-12.8c-1.1,0-1.7,0.6-1.7,1.9v4.5c0,1.1,0.6,1.6,1.7,1.6h1.8
			c2.1,0,0.7,1.8,0.5,3.2l-6.2,39.2c-0.2,1.2,0.5,1.8,1.8,1.8h5c0.8,0,1.4-0.4,1.6-1.4l6.1-40.6c0.2-1.1,0.6-1.5,1.3-1.5
			s1.2,0.7,1.2,1.6v32.5c0,1-0.6,1.4-1.6,1.4h-1.7c-1.1,0-1.6,0.5-1.6,1.5v4.8c0,1.1,0.5,1.7,1.6,1.7h9.5c1.2,0,1.8-0.4,1.8-1.7
			V32.5C355.4,27.7,351.7,23.8,346.9,23.8z M221,76c1.1,0,1.6-0.6,1.6-1.8v-29c0-1.1-0.5-1.7-1.6-1.7h-4.5c-1.2,0-1.9,0.6-1.9,1.7
			v29c0,1.2,0.6,1.8,1.9,1.8H221z M197.6,92.4h-2.3v0h-4.2c-0.3,0-0.6,0.3-0.6,0.6v5v3.6v8.3c0,0,0,0.1,0,0.1h0
			c0,0.3,0.3,0.5,0.6,0.5h4.2v0h2.2c0.4,0,0.6-0.2,0.6-0.7v-1.5c0-0.3-0.3-0.6-0.6-0.6h-4.3c0,0-0.1,0-0.1-0.1v-2.7v-2.1
			c0,0,0-0.1,0.1-0.1h3.1c0.4,0,0.6-0.2,0.6-0.7v-1.5c0-0.3-0.3-0.6-0.6-0.6h-3.1c0,0-0.1,0-0.1-0.1v-4.8c0,0,0-0.1,0.1-0.1h4.2
			c0.4,0,0.6-0.2,0.6-0.7V93C198.2,92.7,197.9,92.4,197.6,92.4z M222.8,93.8c0.6,0.7,0.9,1.6,0.9,2.4v10.5c0,0.9-0.3,1.7-0.9,2.5
			c-0.8,0.9-1.7,1.4-2.9,1.4c-1.1,0-2-0.4-2.8-1.1c-0.7-0.8-1.1-1.7-1.1-2.7V96.2c0-0.9,0.3-1.7,1-2.5c0.7-0.9,1.8-1.3,2.9-1.3
			C221,92.4,222,92.9,222.8,93.8z M221,96.2c0-0.5-0.5-1.1-1.2-1.1c-0.7,0-1.2,0.6-1.2,1.1v10.5c0,0.5,0.5,1.1,1.2,1.1
			c0.7,0,1.2-0.7,1.2-1.1V96.2z M187.7,105.5H186c-0.3,0-0.5,0.2-0.5,0.6v0.2c0,0.9-0.4,1.3-1.2,1.3c-0.7,0-1.1-0.5-1.1-1.3v0.1l0,0
			V96.4c0-0.8,0.4-1.2,1.1-1.2c0.8,0,1.2,0.5,1.2,1.3v0.2c0,0.4,0.2,0.6,0.5,0.6h1.6c0.4,0,0.6-0.2,0.6-0.6v-0.5
			c0-1-0.4-1.9-1.1-2.7c-0.8-0.8-1.7-1.2-2.8-1.2c-1,0-1.9,0.4-2.7,1.2c-0.8,0.8-1.1,1.7-1.1,2.8h0v0.1v0.8v9.4h0
			c0,1.1,0.4,2,1.1,2.7c0.8,0.8,1.7,1.2,2.7,1.2c1.1,0,2-0.4,2.8-1.2c0.7-0.8,1.1-1.7,1.1-2.7v-0.5
			C188.2,105.7,188.1,105.5,187.7,105.5z M210.2,92.4c-1.1,0-2,0.4-2.8,1.2c-0.7,0.8-1.1,1.7-1.1,2.7v0.5c0,0.4,0.2,0.6,0.6,0.6h1.6
			c0.3,0,0.5-0.2,0.5-0.6v-0.2c0-0.9,0.4-1.3,1.2-1.3c0.7,0,1.1,0.5,1.1,1.3v1.7c0,0.7-0.1,1.2-0.4,1.6l-4,6.9
			c-0.4,0.7-0.6,1.2-0.6,1.6v1.3c0,0.5,0.2,0.7,0.6,0.7h6.6c0.4,0,0.6-0.2,0.6-0.6v-1.4c0-0.5-0.2-0.7-0.5-0.7h-3.3
			c-0.3,0-0.4-0.2-0.4-0.4c0-0.1,0-0.2,0.1-0.2l3.8-6.6c0.3-0.5,0.3-1.1,0.3-1.5v-2.6c0-1.1-0.4-2.1-1.1-2.8
			C212.1,92.8,211.2,92.4,210.2,92.4z M186.6,76h4.5c1.8,0,2.3-1.2,1.9-2.9l-5-20.9c-1.2-4.9,1.2-4.5,1.9-8.8l2.9-16.9
			c0.4-2.3-0.4-2.7-1.6-2.7h-4.8c-0.8,0-1.2,0.4-1.4,1.4l-2,11.3c-0.2,0.9-1.4,1-1.8,0.2l-4.7-10.8c-0.7-1.5-1-2.1-2.1-2.1H170
			c-1.8,0-2.7,1.2-1.9,2.9l4,8.7c2.1,4.6-1.9,5.7-2.1,10.3l-1.6,28.5c-0.1,1.2,0.7,1.8,2,1.8h4.7c0.8,0,1.3-0.4,1.4-1.4l1.3-23.2
			c0.1-1,1.4-1,1.6-0.2l5.4,22.7C185.1,75.4,185.4,76,186.6,76z"/>
	</defs>
	<clipPath id="SVGID_2_">
		<use xlink:href="#SVGID_1_"  style="overflow:visible;"/>
	</clipPath>
	<g class="st0">
		<defs>
			<rect id="SVGID_3_" x="-43.7" y="-33.1" width="442.3" height="614"/>
		</defs>
		<clipPath id="SVGID_4_">
			<use xlink:href="#SVGID_3_"  style="overflow:visible;"/>
		</clipPath>
		<g class="st1">
			
				<image style="overflow:visible;" width="3000" height="3000" xlink:href="../Desktop/גראפיקס/אלמנטים עיצוביים/טקסטורות/papers/528.jpg"  transform="matrix(0 -0.1474 0.1474 0 -43.6993 409.1667)">
			</image>
			
				<image style="overflow:visible;" width="3000" height="3000" xlink:href="../Desktop/גראפיקס/אלמנטים עיצוביים/טקסטורות/papers/528.jpg"  transform="matrix(0 0.1474 0.1474 0 -43.6993 409.1667)">
			</image>
		</g>
	</g>
</g>
<path class="st2" d="M37,99.9h106.7v3.1H37V99.9z M176.7,92.4h-1.5c-0.3,0-0.6,0.3-0.6,0.6v5v2.7c0,0.3-0.4,0.3-0.5,0.1l-2.7-7.7
	c0-0.4-0.2-0.6-0.7-0.6h-1.5c-0.3,0-0.6,0.3-0.6,0.6v5v3.6v8.3c0,0.4,0.2,0.6,0.7,0.6h1.5c0.3,0,0.6-0.3,0.6-0.6v-5v-2.7
	c0-0.3,0.4-0.3,0.5-0.1l2.7,7.7c0,0.4,0.2,0.6,0.7,0.6h1.5c0.3,0,0.6-0.3,0.6-0.6v-5v-3.6V93C177.4,92.6,177.2,92.4,176.7,92.4z
	 M165.4,92.4h-1.5c-0.4,0-0.6,0.2-0.6,0.6v4.9v3.6v8.3c0,0.4,0.2,0.6,0.7,0.6h1.5c0.4,0,0.6-0.2,0.6-0.6v-4.9v-3.6V93
	C166,92.6,165.8,92.4,165.4,92.4z M155.5,98.1c-0.3-0.5-0.4-1-0.4-1.6c0-0.8,0.4-1.3,1.1-1.3c0.8,0,1.2,0.5,1.2,1.3v0.2
	c0,0.4,0.2,0.6,0.5,0.6h1.6c0.4,0,0.6-0.2,0.6-0.6v-0.5c0-1-0.4-1.9-1.1-2.7c-0.8-0.8-1.7-1.2-2.8-1.2c-1,0-1.9,0.4-2.7,1.2
	c-0.8,0.8-1.1,1.7-1.1,2.8v0.8c0,0.4,0,1,0.3,1.5l4.4,6.1c0.3,0.5,0.4,1,0.4,1.6c0,0.8-0.4,1.3-1.1,1.3c-0.8,0-1.2-0.5-1.2-1.3v-0.2
	c0-0.4-0.2-0.6-0.5-0.6h-1.6c-0.4,0-0.6,0.2-0.6,0.6v0.5c0,1,0.4,1.9,1.1,2.7c0.8,0.8,1.7,1.2,2.8,1.2c1,0,1.9-0.4,2.7-1.2
	c0.8-0.8,1.1-1.7,1.1-2.8v-0.8c0-0.4,0-1-0.3-1.5L155.5,98.1z M138.4,23.8h-11.3c-1.2,0-1.8,0.6-1.8,1.9v4.5c0,1.1,0.6,1.6,1.8,1.6
	h10.1c1,0,1.6,0.4,1.6,1.4v40.9c0,1.2,0.6,1.8,1.9,1.8h4.6c1.1,0,1.7-0.6,1.7-1.8V32.3C147,27.5,143.2,23.8,138.4,23.8z M161.2,23.8
	H153c-1.2,0-1.8,0.6-1.8,1.9v4.5c0,1.1,0.6,1.6,1.8,1.6h1c2.1,0,0.7,2.1,0.7,4.1v38.3c0,1.2,0.6,1.8,1.9,1.8h4.7
	c1.2,0,1.7-0.6,1.7-1.8V25.5C163,24.2,162.4,23.8,161.2,23.8z M268.2,76h5.4c2.2,0,4-1.8,4-4V33.3c0-1,0.6-1.4,1.6-1.4h3.8
	c1,0,1.6,0.4,1.6,1.4v41.2c0,1.1,0.7,1.5,1.8,1.5h4.4c0.7,0,1.4-0.4,1.4-1.5v-49c0-1.2-0.6-1.7-1.8-1.7h-21c-1.1,0-1.7,0.6-1.7,1.9
	v4.5c0,1.1,0.6,1.6,1.7,1.6c2,0,0.4,2.1,0.4,4.1v30.8c0,0.8-0.3,1.3-1.1,1.3h-1c-1,0-1.4,0.8-1.4,1.9v4.4
	C266.4,75.5,267,76,268.2,76z M102.1,76h18.8c1.1,0,1.7-0.5,1.7-1.7v-4.4c0-1.1-0.4-1.7-1.4-1.9c-0.7-0.1-1.1-0.5-1.1-1.3V25.5
	c0-1.2-0.6-1.7-1.8-1.7h-16.2c-1.2,0-1.8,0.6-1.8,1.9v4.5c0,1.1,0.6,1.6,1.8,1.6h8.2c1,0,1.6,0.4,1.6,1.4v33.3c0,1-0.6,1.4-1.6,1.4
	h-8.2c-1.2,0-1.8,0.6-1.8,1.9v4.5C100.3,75.4,101,76,102.1,76z M38.8,76h5.4c2.2,0,4-1.8,4-4V33.3c0-1,0.6-1.4,1.6-1.4h3.8
	c1,0,1.6,0.4,1.6,1.4v41.2c0,1.1,0.7,1.5,1.8,1.5h4.4c0.7,0,1.4-0.4,1.4-1.5v-49c0-1.2-0.6-1.7-1.8-1.7H40c-1.1,0-1.7,0.6-1.7,1.9
	v4.5c0,1.1,0.6,1.6,1.7,1.6c2,0,0.4,2.1,0.4,4.1v30.8c0,0.8-0.3,1.3-1.1,1.3h-1c-1,0-1.4,0.8-1.4,1.9v4.4C37,75.5,37.6,76,38.8,76z
	 M306.4,76h11.8c4.9,0,8.8-3.7,8.8-8.5v-42c0-1.1-0.5-1.7-1.7-1.7h-4.2c-1.2,0-1.9,0.6-1.9,1.7v41.1c0,0.9-0.5,1.3-1.4,1.3h-1.1
	c-1.3,0-1.2-1.3-0.8-2.7c0.2-0.6,0.3-1.2,0.3-1.7V25.5c0-1.1-0.5-1.7-1.6-1.7h-4.3c-1.2,0-1.9,0.6-1.9,1.7v38.1
	c0,0.5,0.1,1.1,0.3,1.7c0.4,1.3,0.5,2.7-0.8,2.7h-1.1c-0.9,0-1.4-0.4-1.4-1.3V25.5c0-1.1-0.5-1.7-1.6-1.7h-4.3
	c-1.2,0-1.9,0.6-1.9,1.7v42C297.7,72.2,301.6,76,306.4,76z M83.3,76h4.1c4.8,0,8.5-3.7,8.5-8.5v-42c0-1.2-0.6-1.7-1.8-1.7h-8.2
	c-1.1,0-1.7,0.6-1.7,1.9v4.5c0,1.1,0.6,1.6,1.7,1.6H87c2.1,0,0.7,2.1,0.7,4.1l-0.1,30.9c0,0.5-0.4,1.1-1.2,1.1h-3.1
	c-1.2,0-1.8,0.6-1.8,1.9v4.5C81.5,75.4,82.1,76,83.3,76z M69.7,31.9c2.1,0,0.6,2.1,0.6,4.1v13c0,1.2,0.6,1.8,1.9,1.8h4.7
	c1.2,0,1.7-0.6,1.7-1.8V25.5c0-1.2-0.6-1.7-1.8-1.7h-7.1c-1.2,0-1.8,0.6-1.8,1.9v4.5C67.9,31.4,68.5,31.9,69.7,31.9z M237.2,74.2
	V25.5c0-1.2-0.6-1.7-1.8-1.7h-19.1c-1.2,0-1.8,0.6-1.8,1.9v4.5c0,1.1,0.6,1.6,1.8,1.6h11.3c1,0,1.6,0.4,1.6,1.4v40.9
	c0,1.2,0.6,1.8,1.9,1.8h4.4C236.6,76,237.2,75.4,237.2,74.2z M239.1,93.8c0.6,0.7,0.9,1.6,0.9,2.4v10.5c0,0.9-0.3,1.7-0.9,2.5
	c-0.8,0.9-1.7,1.4-2.9,1.4c-1.1,0-2-0.4-2.8-1.1c-0.7-0.8-1.1-1.7-1.1-2.7V96.2c0-0.9,0.3-1.7,1-2.5c0.7-0.9,1.8-1.3,2.9-1.3
	C237.4,92.4,238.4,92.9,239.1,93.8z M237.3,96.2c0-0.5-0.5-1.1-1.2-1.1c-0.7,0-1.2,0.6-1.2,1.1v10.5c0,0.5,0.5,1.1,1.2,1.1
	c0.7,0,1.2-0.7,1.2-1.1V96.2z M260.2,65l3.5-38.1c0.1-1.6-1.2-3.1-3-3.1h-9.5c-0.9,0-1.4-0.4-1.4-1.3v-3.2c0-1.1-0.5-1.7-1.6-1.7
	h-4.5c-1.2,0-1.9,0.6-1.9,1.7v10.9c0,1.2,0.6,1.7,1.8,1.7h10c0.9,0,1.4,0.4,1.3,1.3l-2.9,31.8c-0.2,1.5-1.4,3-3,3h-2.1
	c-1.2,0-1.8,0.6-1.8,1.9v4.5c0,1.2,0.6,1.7,1.8,1.7h2.1C254.9,76,259.5,71.4,260.2,65z M248.7,103h106.7v-3.1H248.7V103z
	 M229.3,92.4h-1.8c-0.2,0-0.4,0.1-0.5,0.3c-0.4,0.8-0.7,1.2-0.9,1.5c-0.4,0.5-0.6,0.7-0.6,1v1.8c0,0.4,0.2,0.6,0.6,0.6
	c0.2,0,0.5-0.2,0.7-0.2c0.3,0,0.4,0.2,0.4,0.6v12c0,0.4,0.2,0.6,0.7,0.6h1.5c0.4,0,0.6-0.2,0.6-0.6v-8.5V93
	C229.9,92.6,229.7,92.4,229.3,92.4z M346.9,23.8h-12.8c-1.1,0-1.7,0.6-1.7,1.9v4.5c0,1.1,0.6,1.6,1.7,1.6h1.8c2.1,0,0.7,1.8,0.5,3.2
	l-6.2,39.2c-0.2,1.2,0.5,1.8,1.8,1.8h5c0.8,0,1.4-0.4,1.6-1.4l6.1-40.6c0.2-1.1,0.6-1.5,1.3-1.5s1.2,0.7,1.2,1.6v32.5
	c0,1-0.6,1.4-1.6,1.4h-1.7c-1.1,0-1.6,0.5-1.6,1.5v4.8c0,1.1,0.5,1.7,1.6,1.7h9.5c1.2,0,1.8-0.4,1.8-1.7V32.5
	C355.4,27.7,351.7,23.8,346.9,23.8z M221,76c1.1,0,1.6-0.6,1.6-1.8v-29c0-1.1-0.5-1.7-1.6-1.7h-4.5c-1.2,0-1.9,0.6-1.9,1.7v29
	c0,1.2,0.6,1.8,1.9,1.8H221z M197.6,92.4h-2.3v0h-4.2c-0.3,0-0.6,0.3-0.6,0.6v5v3.6v8.3c0,0,0,0.1,0,0.1h0c0,0.3,0.3,0.5,0.6,0.5
	h4.2v0h2.2c0.4,0,0.6-0.2,0.6-0.7v-1.5c0-0.3-0.3-0.6-0.6-0.6h-4.3c0,0-0.1,0-0.1-0.1v-2.7v-2.1c0,0,0-0.1,0.1-0.1h3.1
	c0.4,0,0.6-0.2,0.6-0.7v-1.5c0-0.3-0.3-0.6-0.6-0.6h-3.1c0,0-0.1,0-0.1-0.1v-4.8c0,0,0-0.1,0.1-0.1h4.2c0.4,0,0.6-0.2,0.6-0.7V93
	C198.2,92.7,197.9,92.4,197.6,92.4z M222.8,93.8c0.6,0.7,0.9,1.6,0.9,2.4v10.5c0,0.9-0.3,1.7-0.9,2.5c-0.8,0.9-1.7,1.4-2.9,1.4
	c-1.1,0-2-0.4-2.8-1.1c-0.7-0.8-1.1-1.7-1.1-2.7V96.2c0-0.9,0.3-1.7,1-2.5c0.7-0.9,1.8-1.3,2.9-1.3C221,92.4,222,92.9,222.8,93.8z
	 M221,96.2c0-0.5-0.5-1.1-1.2-1.1c-0.7,0-1.2,0.6-1.2,1.1v10.5c0,0.5,0.5,1.1,1.2,1.1c0.7,0,1.2-0.7,1.2-1.1V96.2z M187.7,105.5H186
	c-0.3,0-0.5,0.2-0.5,0.6v0.2c0,0.9-0.4,1.3-1.2,1.3c-0.7,0-1.1-0.5-1.1-1.3v0.1l0,0V96.4c0-0.8,0.4-1.2,1.1-1.2
	c0.8,0,1.2,0.5,1.2,1.3v0.2c0,0.4,0.2,0.6,0.5,0.6h1.6c0.4,0,0.6-0.2,0.6-0.6v-0.5c0-1-0.4-1.9-1.1-2.7c-0.8-0.8-1.7-1.2-2.8-1.2
	c-1,0-1.9,0.4-2.7,1.2c-0.8,0.8-1.1,1.7-1.1,2.8h0v0.1v0.8v9.4h0c0,1.1,0.4,2,1.1,2.7c0.8,0.8,1.7,1.2,2.7,1.2c1.1,0,2-0.4,2.8-1.2
	c0.7-0.8,1.1-1.7,1.1-2.7v-0.5C188.2,105.7,188.1,105.5,187.7,105.5z M210.2,92.4c-1.1,0-2,0.4-2.8,1.2c-0.7,0.8-1.1,1.7-1.1,2.7
	v0.5c0,0.4,0.2,0.6,0.6,0.6h1.6c0.3,0,0.5-0.2,0.5-0.6v-0.2c0-0.9,0.4-1.3,1.2-1.3c0.7,0,1.1,0.5,1.1,1.3v1.7c0,0.7-0.1,1.2-0.4,1.6
	l-4,6.9c-0.4,0.7-0.6,1.2-0.6,1.6v1.3c0,0.5,0.2,0.7,0.6,0.7h6.6c0.4,0,0.6-0.2,0.6-0.6v-1.4c0-0.5-0.2-0.7-0.5-0.7h-3.3
	c-0.3,0-0.4-0.2-0.4-0.4c0-0.1,0-0.2,0.1-0.2l3.8-6.6c0.3-0.5,0.3-1.1,0.3-1.5v-2.6c0-1.1-0.4-2.1-1.1-2.8
	C212.1,92.8,211.2,92.4,210.2,92.4z M186.6,76h4.5c1.8,0,2.3-1.2,1.9-2.9l-5-20.9c-1.2-4.9,1.2-4.5,1.9-8.8l2.9-16.9
	c0.4-2.3-0.4-2.7-1.6-2.7h-4.8c-0.8,0-1.2,0.4-1.4,1.4l-2,11.3c-0.2,0.9-1.4,1-1.8,0.2l-4.7-10.8c-0.7-1.5-1-2.1-2.1-2.1H170
	c-1.8,0-2.7,1.2-1.9,2.9l4,8.7c2.1,4.6-1.9,5.7-2.1,10.3l-1.6,28.5c-0.1,1.2,0.7,1.8,2,1.8h4.7c0.8,0,1.3-0.4,1.4-1.4l1.3-23.2
	c0.1-1,1.4-1,1.6-0.2l5.4,22.7C185.1,75.4,185.4,76,186.6,76z"/>
</svg>
